<svg id="color" height="512" viewBox="0 0 24 24" width="512" xmlns="http://www.w3.org/2000/svg"><path d="m.82 1.79c-.5.25-.82.78-.82 1.34v16.11c0 .46.21.89.57 1.18.36.28.82.39 1.26.28 4.31-1 7.47-.91 9.96.27.06.03.14.05.21.05v-19.18c-2.83-2.44-6.4-2.45-11.18-.05z" fill="#cfd8dc"/><path d="m24 3.13v16.11c0 .46-.21.89-.57 1.18-.36.28-.82.39-1.26.28-4.31-1-7.47-.91-9.96.27-.06.03-.14.05-.21.05v-19.18c2.83-2.44 6.4-2.45 11.18-.05.5.25.82.78.82 1.34z" fill="#eceff1"/><path d="m22.285 24c-.601 0-1.147-.304-1.462-.812l-1.848-3.188h-4.95l-1.849 3.188c-.315.508-.861.812-1.462.812-1.031 0-1.845-.906-1.696-1.942l.974-6.783.005-.031c.202-1.282 1.335-2.244 2.646-2.244.808 0 1.548.349 2.053.95h3.608c.506-.601 1.245-.95 2.052-.95 1.311 0 2.443.962 2.647 2.244l.005.031.974 6.785c.149 1.018-.653 1.94-1.697 1.94z" fill="#2196f3"/><path d="m12.643 13c-1.311 0-2.443.962-2.647 2.244l-.005.031-.974 6.783c-.148 1.036.666 1.942 1.697 1.942.602 0 1.147-.304 1.462-.812l1.848-3.188h2.476v-6.05h-1.805c-.505-.601-1.245-.95-2.052-.95z" fill="#1d83d4"/></svg>