<?xml version="1.0" encoding="iso-8859-1"?>
<!-- Generator: Adobe Illustrator 16.0.0, SVG Export Plug-In . SVG Version: 6.00 Build 0)  -->
<!DOCTYPE svg PUBLIC "-//W3C//DTD SVG 1.1//EN" "http://www.w3.org/Graphics/SVG/1.1/DTD/svg11.dtd">
<svg version="1.1" id="Capa_1" xmlns="http://www.w3.org/2000/svg" xmlns:xlink="http://www.w3.org/1999/xlink" x="0px" y="0px"
	 width="104.535px" height="104.535px" viewBox="0 0 104.535 104.535" style="enable-background:new 0 0 104.535 104.535;"
	 xml:space="preserve">
<g>
	<path d="M24.988,33.651h6.845v70.884l-13.921-0.021l7.076-6.288V33.651z M24.988,31.196l6.845,0.009V0h-6.845V31.196z
		 M86.624,104.512l-52.701,0.023V33.651l6.162,0.5l41.269,8.49v56.237L86.624,104.512z M37.268,88.285
		c0,0.041,0.018,0.057,0.062,0.067c0.235,0.064,0.47,0.132,0.705,0.196c0.07,0.02,0.141,0.039,0.211,0.064
		c0.197,0.072,0.381,0.235,0.378,0.457c-0.007,0.644-0.003,1.289-0.002,1.935c0,0.069,0,0.14,0.009,0.21
		c0.028,0.222,0.133,0.426,0.365,0.597c0.162,0.12,0.337,0.185,0.518,0.222c0.381,0.084,0.667-0.097,0.667-0.418
		c0-0.977,0-1.953,0-2.93c0-0.02,0-0.039,0-0.066c-0.082-0.021-0.154-0.038-0.226-0.062c-0.059-0.02-0.072-0.005-0.072,0.042
		c0.002,0.523,0.001,1.046,0.001,1.569c0,0.365,0,0.732,0,1.098c0,0.182-0.104,0.27-0.31,0.248
		c-0.088-0.009-0.184-0.033-0.273-0.066c-0.252-0.1-0.366-0.248-0.366-0.461c0-0.696-0.005-1.396,0.002-2.092
		c0.004-0.348-0.308-0.678-0.682-0.801c-0.31-0.102-0.622-0.18-0.933-0.27c-0.04-0.012-0.056-0.004-0.055,0.031
		C37.271,88,37.271,88.144,37.268,88.285z M37.27,92.238c0.001,0.146,0.035,0.297,0.132,0.446c0.15,0.231,0.372,0.371,0.632,0.445
		c0.447,0.128,0.893,0.249,1.339,0.374c0.056,0.018,0.113,0.036,0.169,0.058c0.168,0.066,0.292,0.188,0.327,0.325
		c0.012,0.045,0.015,0.089,0.015,0.132c0.001,0.447,0.001,0.896,0.001,1.343c0,0.011-0.005,0.022,0.001,0.033
		c0.01,0.016,0.025,0.041,0.04,0.045c0.082,0.026,0.164,0.049,0.255,0.073c0-0.019,0-0.028,0-0.041c0-0.563,0.005-1.123-0.003-1.688
		c-0.002-0.188-0.101-0.375-0.286-0.541c-0.139-0.123-0.299-0.202-0.469-0.25c-0.46-0.129-0.92-0.254-1.38-0.385
		c-0.27-0.076-0.467-0.242-0.461-0.514c0.01-0.464,0.003-0.934,0.003-1.398c0-0.014-0.001-0.023,0-0.035
		c0.002-0.03-0.012-0.049-0.051-0.06c-0.068-0.017-0.137-0.034-0.206-0.056c-0.047-0.016-0.059-0.003-0.059,0.033
		C37.27,91.135,37.268,91.687,37.27,92.238z M40.182,97.701c0.009-0.098-0.037-0.192-0.097-0.289
		c-0.179-0.295-0.358-0.588-0.537-0.881c-0.532-0.875-1.065-1.75-1.598-2.623c-0.028-0.045-0.061-0.092-0.099-0.131
		c-0.107-0.11-0.222-0.11-0.253,0c-0.012,0.043-0.014,0.09-0.014,0.138c-0.001,0.891-0.001,1.78,0,2.672
		c0,0.04-0.014,0.051-0.063,0.035c-0.08-0.025-0.16-0.046-0.246-0.069c0,0.178,0,0.35,0,0.527c0.082,0.021,0.16,0.047,0.238,0.064
		c0.054,0.014,0.071,0.032,0.07,0.079c-0.003,0.138-0.002,0.278,0,0.42c0,0.017,0.016,0.048,0.025,0.052
		c0.093,0.028,0.187,0.054,0.284,0.08c0.001-0.023,0.003-0.041,0.003-0.06c0-0.133,0.003-0.267-0.001-0.399
		c0-0.051,0.013-0.063,0.075-0.045c0.63,0.178,1.261,0.354,1.891,0.526c0.062,0.017,0.126,0.026,0.185,0.028
		C40.14,97.83,40.175,97.783,40.182,97.701z M37.958,94.436c-0.011-0.018-0.025-0.033-0.038-0.051c-0.007,0-0.013,0-0.019,0.001
		c0,0.78,0,1.56,0,2.341c0.017,0.006,0.029,0.012,0.04,0.014c0.542,0.151,1.085,0.303,1.627,0.453
		c0.067,0.02,0.076,0.008,0.039-0.055C39.059,96.238,38.509,95.336,37.958,94.436z M81.353,40.654V13.448L41.01,0h-7.087v31.206
		l6.394,0.557L81.353,40.654z"/>
</g>
<g>
</g>
<g>
</g>
<g>
</g>
<g>
</g>
<g>
</g>
<g>
</g>
<g>
</g>
<g>
</g>
<g>
</g>
<g>
</g>
<g>
</g>
<g>
</g>
<g>
</g>
<g>
</g>
<g>
</g>
</svg>
